<svg xmlns="http://www.w3.org/2000/svg" width="960" height="1820" viewBox="0 0 960 1820" role="img" aria-labelledby="t d" font-family="system-ui, -apple-system, 'Segoe UI', Helvetica, Arial, sans-serif">
<title id="t">How far each version got</title><desc id="d">Jev v1: best floor 17; Jev v2: best floor 28; Jev v3: best floor 23; Jev v3.2: best floor 31; Jev v3.3: best floor 33; Strategist v2: best floor 48; Strategist v2.1: best floor 48; Strategist v3: best floor 17; Strategist v3.1: best floor 17; Strategist v3.2: best floor 17; Strategist v3.3: best floor 33; Strategist v3.4: best floor 48; Strategist v3.5: best floor 48; Strategist v3.6: best floor 17; Strategist v3.7: best floor 33; Strategist v3.8: best floor 48; Strategist v3.9: best floor 42; Strategist v3.10: best floor 17; Strategist v3.11: best floor 17; Strategist v3.12: best floor 25; Strategist v3.13: best floor 48; Strategist v3.14: best floor 17; Strategist v3.15: best floor 27; Strategist v3.16: best floor 30; Strategist v3.17: best floor 33; Strategist v3.18: best floor 48</desc>
<rect width="960" height="1820" rx="12" fill="#1a1a19"/>
<text x="24" y="40" font-size="20" font-weight="600" fill="#ffffff" text-anchor="start">How far each version got</text>
<text x="24" y="64" font-size="14" font-weight="400" fill="#c3c2b7" text-anchor="start">Slay the Spire 2, Ironclad, Ascension 0, standard runs (no run modifiers). Each dot is one run, green if it won; the bar reaches the best run.</text>
<text x="24" y="84" font-size="13" font-weight="400" fill="#c3c2b7" text-anchor="start">Hollow dots: runs affected by a known issue (see the notes under the table).</text>
<text x="689.1666666666666" y="120" font-size="13" font-weight="600" fill="#c3c2b7" text-anchor="middle">Act 1 boss</text>
<text x="689.1666666666666" y="137" font-size="12" font-weight="400" fill="#898781" text-anchor="middle">floor 17</text>
<text x="782.5" y="120" font-size="13" font-weight="600" fill="#c3c2b7" text-anchor="middle">Act 2 boss</text>
<text x="782.5" y="137" font-size="12" font-weight="400" fill="#898781" text-anchor="middle">floor 33</text>
<text x="870" y="120" font-size="13" font-weight="600" fill="#c3c2b7" text-anchor="middle">Final boss</text>
<text x="870" y="137" font-size="12" font-weight="400" fill="#898781" text-anchor="middle">floor 48</text>
<line x1="590" y1="150" x2="590" y2="1698" stroke="#383835" stroke-width="1"/>
<line x1="689.1666666666666" y1="150" x2="689.1666666666666" y2="1698" stroke="#2c2c2a" stroke-width="1"/>
<line x1="782.5" y1="150" x2="782.5" y2="1698" stroke="#2c2c2a" stroke-width="1"/>
<line x1="870" y1="150" x2="870" y2="1698" stroke="#2c2c2a" stroke-width="1"/>
<circle cx="30" cy="171" r="6" fill="#3987e5"/>
<text x="44" y="176" font-size="14" font-weight="600" fill="#ffffff" text-anchor="start">Jev only</text>
<text x="24" y="206" font-size="15"><tspan font-weight="600" fill="#ffffff">Jev v1</tspan><tspan fill="#898781" font-size="13"> · 0 of 6 won, median floor 17</tspan></text>
<text x="24" y="226" font-size="13.5" font-weight="400" fill="#c3c2b7" text-anchor="start">One compact question per screen, no call for forced moves, reviews on risky end turns</text>
<path d="M590,211 H686.1666666666666 A3,3 0 0 1 689.1666666666666,214 V214 A3,3 0 0 1 686.1666666666666,217 H590 Z" fill="#3987e5" fill-opacity="0.5"/>
<circle cx="689.1666666666666" cy="196.5" r="3.5" fill="#1a1a19" stroke="#3987e5" stroke-width="2"/>
<circle cx="689.1666666666666" cy="203.5" r="3.5" fill="#1a1a19" stroke="#3987e5" stroke-width="2"/>
<circle cx="689.1666666666666" cy="210.5" r="3.5" fill="#1a1a19" stroke="#3987e5" stroke-width="2"/>
<circle cx="689.1666666666666" cy="217.5" r="3.5" fill="#1a1a19" stroke="#3987e5" stroke-width="2"/>
<circle cx="689.1666666666666" cy="224.5" r="3.5" fill="#1a1a19" stroke="#3987e5" stroke-width="2"/>
<circle cx="689.1666666666666" cy="231.5" r="3.5" fill="#1a1a19" stroke="#3987e5" stroke-width="2"/>
<text x="701.1666666666666" y="219" font-size="13" font-weight="600"><tspan fill="#ffffff">17</tspan></text>
<text x="24" y="258" font-size="15"><tspan font-weight="600" fill="#ffffff">Jev v2</tspan><tspan fill="#898781" font-size="13"> · 2 runs</tspan></text>
<text x="24" y="278" font-size="13.5" font-weight="400" fill="#c3c2b7" text-anchor="start">Route and resource facts from code: elites, rests, shops, heal, potions and gold ahead</text>
<path d="M590,263 H750.3333333333334 A3,3 0 0 1 753.3333333333334,266 V266 A3,3 0 0 1 750.3333333333334,269 H590 Z" fill="#3987e5" fill-opacity="0.5"/>
<circle cx="671.6666666666666" cy="266" r="3.5" fill="#1a1a19" stroke="#3987e5" stroke-width="2"/>
<circle cx="753.3333333333334" cy="266" r="3.5" fill="#1a1a19" stroke="#3987e5" stroke-width="2"/>
<text x="765.3333333333334" y="271" font-size="13" font-weight="600"><tspan fill="#ffffff">28</tspan></text>
<text x="24" y="310" font-size="15"><tspan font-weight="600" fill="#ffffff">Jev v3</tspan><tspan fill="#898781" font-size="13"> · 3 runs</tspan></text>
<text x="24" y="330" font-size="13.5" font-weight="400" fill="#c3c2b7" text-anchor="start">Ordered route facts; second looks at hallway potion use and leaving a shop with gold</text>
<path d="M590,315 H721.1666666666666 A3,3 0 0 1 724.1666666666666,318 V318 A3,3 0 0 1 721.1666666666666,321 H590 Z" fill="#3987e5" fill-opacity="0.5"/>
<circle cx="677.5" cy="318" r="3.5" fill="#1a1a19" stroke="#3987e5" stroke-width="2"/>
<circle cx="630.8333333333334" cy="318" r="4.5" fill="#3987e5" stroke="#1a1a19" stroke-width="2"/>
<circle cx="724.1666666666666" cy="318" r="3.5" fill="#1a1a19" stroke="#3987e5" stroke-width="2"/>
<text x="736.1666666666666" y="323" font-size="13" font-weight="600"><tspan fill="#ffffff">23</tspan></text>
<text x="24" y="362" font-size="15"><tspan font-weight="600" fill="#ffffff">Jev v3.2</tspan><tspan fill="#898781" font-size="13"> · 0 of 5 won, median floor 14</tspan></text>
<text x="24" y="382" font-size="13.5" font-weight="400" fill="#c3c2b7" text-anchor="start">Leaves a shop only when Jev puts at least half its probability on leaving; log-review</text>
<text x="24" y="400" font-size="13.5" font-weight="400" fill="#c3c2b7" text-anchor="start">fixes</text>
<path d="M590,376 H767.8333333333334 A3,3 0 0 1 770.8333333333334,379 V379 A3,3 0 0 1 767.8333333333334,382 H590 Z" fill="#3987e5" fill-opacity="0.5"/>
<circle cx="671.6666666666666" cy="379" r="4.5" fill="#3987e5" stroke="#1a1a19" stroke-width="2"/>
<circle cx="689.1666666666666" cy="379" r="4.5" fill="#3987e5" stroke="#1a1a19" stroke-width="2"/>
<circle cx="770.8333333333334" cy="379" r="4.5" fill="#3987e5" stroke="#1a1a19" stroke-width="2"/>
<circle cx="636.6666666666666" cy="375.5" r="4.5" fill="#3987e5" stroke="#1a1a19" stroke-width="2"/>
<circle cx="636.6666666666666" cy="382.5" r="4.5" fill="#3987e5" stroke="#1a1a19" stroke-width="2"/>
<text x="782.8333333333334" y="384" font-size="13" font-weight="600"><tspan fill="#ffffff">31</tspan></text>
<text x="24" y="432" font-size="15"><tspan font-weight="600" fill="#ffffff">Jev v3.3</tspan><tspan fill="#898781" font-size="13"> · 0 of 5 won, median floor 17</tspan></text>
<text x="24" y="452" font-size="13.5" font-weight="400" fill="#c3c2b7" text-anchor="start">The forecast models Slow, Flutter, Tender, Vigor and Expect a Fight, and flags powers it</text>
<text x="24" y="470" font-size="13.5" font-weight="400" fill="#c3c2b7" text-anchor="start">doesn't handle</text>
<path d="M590,446 H779.5 A3,3 0 0 1 782.5,449 V449 A3,3 0 0 1 779.5,452 H590 Z" fill="#3987e5" fill-opacity="0.5"/>
<circle cx="689.1666666666666" cy="449" r="4.5" fill="#3987e5" stroke="#1a1a19" stroke-width="2"/>
<circle cx="730" cy="449" r="4.5" fill="#3987e5" stroke="#1a1a19" stroke-width="2"/>
<circle cx="782.5" cy="449" r="4.5" fill="#3987e5" stroke="#1a1a19" stroke-width="2"/>
<circle cx="636.6666666666666" cy="449" r="4.5" fill="#3987e5" stroke="#1a1a19" stroke-width="2"/>
<circle cx="660" cy="449" r="4.5" fill="#3987e5" stroke="#1a1a19" stroke-width="2"/>
<text x="794.5" y="454" font-size="13" font-weight="600"><tspan fill="#ffffff">33</tspan></text>
<circle cx="30" cy="511" r="6" fill="#d95926"/>
<text x="44" y="516" font-size="14" font-weight="600" fill="#ffffff" text-anchor="start">Jev + Claude strategist</text>
<text x="24" y="546" font-size="15"><tspan font-weight="600" fill="#ffffff">Strategist v2</tspan><tspan fill="#898781" font-size="13"> · 2 runs</tspan></text>
<text x="24" y="566" font-size="13.5" font-weight="400" fill="#c3c2b7" text-anchor="start">Claude writes the run plan at key moments; map moves follow its chosen act route</text>
<path d="M590,551 H867 A3,3 0 0 1 870,554 V554 A3,3 0 0 1 867,557 H590 Z" fill="#d95926" fill-opacity="0.5"/>
<circle cx="782.5" cy="554" r="3.5" fill="#1a1a19" stroke="#d95926" stroke-width="2"/>
<circle cx="870" cy="554" r="3.5" fill="#1a1a19" stroke="#d95926" stroke-width="2"/>
<text x="882" y="559" font-size="13" font-weight="600"><tspan fill="#ffffff">48</tspan></text>
<text x="24" y="598" font-size="15"><tspan font-weight="600" fill="#ffffff">Strategist v2.1</tspan><tspan fill="#898781" font-size="13"> · 2 runs</tspan></text>
<text x="24" y="618" font-size="13.5" font-weight="400" fill="#c3c2b7" text-anchor="start">Enforced combat rules: no fatal play if one survives, potion HP floor, focus target</text>
<path d="M590,603 H867 A3,3 0 0 1 870,606 V606 A3,3 0 0 1 867,609 H590 Z" fill="#d95926" fill-opacity="0.5"/>
<circle cx="689.1666666666666" cy="606" r="3.5" fill="#1a1a19" stroke="#d95926" stroke-width="2"/>
<circle cx="870" cy="606" r="3.5" fill="#1a1a19" stroke="#d95926" stroke-width="2"/>
<text x="882" y="611" font-size="13" font-weight="600"><tspan fill="#ffffff">48</tspan></text>
<text x="24" y="650" font-size="15"><tspan font-weight="600" fill="#ffffff">Strategist v3</tspan><tspan fill="#898781" font-size="13"> · 1 run</tspan></text>
<text x="24" y="670" font-size="13.5" font-weight="400" fill="#c3c2b7" text-anchor="start">Claude picks rewards, shop buys, events and rest sites; fight plans saved per encounter</text>
<path d="M590,655 H686.1666666666666 A3,3 0 0 1 689.1666666666666,658 V658 A3,3 0 0 1 686.1666666666666,661 H590 Z" fill="#d95926" fill-opacity="0.5"/>
<circle cx="689.1666666666666" cy="658" r="3.5" fill="#1a1a19" stroke="#d95926" stroke-width="2"/>
<text x="701.1666666666666" y="663" font-size="13" font-weight="600"><tspan fill="#ffffff">17</tspan></text>
<text x="24" y="702" font-size="15"><tspan font-weight="600" fill="#ffffff">Strategist v3.1</tspan><tspan fill="#898781" font-size="13"> · 1 run</tspan></text>
<text x="24" y="722" font-size="13.5" font-weight="400" fill="#c3c2b7" text-anchor="start">Forecasts for exhaust and finishing cards like Fiend Fire; forecast wins are taken</text>
<path d="M590,707 H686.1666666666666 A3,3 0 0 1 689.1666666666666,710 V710 A3,3 0 0 1 686.1666666666666,713 H590 Z" fill="#d95926" fill-opacity="0.5"/>
<circle cx="689.1666666666666" cy="710" r="3.5" fill="#1a1a19" stroke="#d95926" stroke-width="2"/>
<text x="701.1666666666666" y="715" font-size="13" font-weight="600"><tspan fill="#ffffff">17</tspan></text>
<text x="24" y="754" font-size="15"><tspan font-weight="600" fill="#ffffff">Strategist v3.2</tspan><tspan fill="#898781" font-size="13"> · 1 run</tspan></text>
<text x="24" y="774" font-size="13.5" font-weight="400" fill="#c3c2b7" text-anchor="start">No ending a turn with a playable Beckon; least HP loss while enemies are Intangible</text>
<path d="M590,759 H686.1666666666666 A3,3 0 0 1 689.1666666666666,762 V762 A3,3 0 0 1 686.1666666666666,765 H590 Z" fill="#d95926" fill-opacity="0.5"/>
<circle cx="689.1666666666666" cy="762" r="3.5" fill="#1a1a19" stroke="#d95926" stroke-width="2"/>
<text x="701.1666666666666" y="767" font-size="13" font-weight="600"><tspan fill="#ffffff">17</tspan></text>
<text x="24" y="806" font-size="15"><tspan font-weight="600" fill="#ffffff">Strategist v3.3</tspan><tspan fill="#898781" font-size="13"> · 1 run</tspan></text>
<text x="24" y="826" font-size="13.5" font-weight="400" fill="#c3c2b7" text-anchor="start">Moves wait for the game's ready signal instead of fixed delays (about 4x faster)</text>
<path d="M590,811 H779.5 A3,3 0 0 1 782.5,814 V814 A3,3 0 0 1 779.5,817 H590 Z" fill="#d95926" fill-opacity="0.5"/>
<circle cx="782.5" cy="814" r="3.5" fill="#1a1a19" stroke="#d95926" stroke-width="2"/>
<text x="794.5" y="819" font-size="13" font-weight="600"><tspan fill="#ffffff">33</tspan></text>
<text x="24" y="858" font-size="15"><tspan font-weight="600" fill="#ffffff">Strategist v3.4</tspan><tspan fill="#898781" font-size="13"> · 1 run</tspan></text>
<text x="24" y="878" font-size="13.5" font-weight="400" fill="#c3c2b7" text-anchor="start">Briefs add enemy patterns, past card picks and fight results; potions saved for bosses</text>
<path d="M590,863 H867 A3,3 0 0 1 870,866 V866 A3,3 0 0 1 867,869 H590 Z" fill="#d95926" fill-opacity="0.5"/>
<circle cx="870" cy="866" r="4.5" fill="#d95926" stroke="#1a1a19" stroke-width="2"/>
<text x="882" y="871" font-size="13" font-weight="600"><tspan fill="#ffffff">48</tspan></text>
<text x="24" y="910" font-size="15"><tspan font-weight="600" fill="#ffffff">Strategist v3.5</tspan><tspan fill="#898781" font-size="13"> · 3 runs</tspan></text>
<text x="24" y="930" font-size="13.5" font-weight="400" fill="#c3c2b7" text-anchor="start">A second look when Jev's line loses far more HP than the best surviving line</text>
<path d="M590,915 H867 A3,3 0 0 1 870,918 V918 A3,3 0 0 1 867,921 H590 Z" fill="#d95926" fill-opacity="0.5"/>
<circle cx="782.5" cy="918" r="4.5" fill="#d95926" stroke="#1a1a19" stroke-width="2"/>
<circle cx="689.1666666666666" cy="918" r="3.5" fill="#1a1a19" stroke="#d95926" stroke-width="2"/>
<circle cx="870" cy="918" r="6.5" fill="#0ca30c" stroke="#1a1a19" stroke-width="2"/>
<text x="882" y="923" font-size="13" font-weight="600"><tspan fill="#ffffff">48</tspan><tspan fill="#0ca30c"> ✓ won</tspan></text>
<text x="24" y="962" font-size="15"><tspan font-weight="600" fill="#ffffff">Strategist v3.6</tspan><tspan fill="#898781" font-size="13"> · 1 run</tspan></text>
<text x="24" y="982" font-size="13.5" font-weight="400" fill="#c3c2b7" text-anchor="start">Win forecasts distrust unmodeled debuffs; the boss potion reserve yields at low HP</text>
<path d="M590,967 H686.1666666666666 A3,3 0 0 1 689.1666666666666,970 V970 A3,3 0 0 1 686.1666666666666,973 H590 Z" fill="#d95926" fill-opacity="0.5"/>
<circle cx="689.1666666666666" cy="970" r="4.5" fill="#d95926" stroke="#1a1a19" stroke-width="2"/>
<text x="701.1666666666666" y="975" font-size="13" font-weight="600"><tspan fill="#ffffff">17</tspan></text>
<text x="24" y="1014" font-size="15"><tspan font-weight="600" fill="#ffffff">Strategist v3.7</tspan><tspan fill="#898781" font-size="13"> · 1 run</tspan></text>
<text x="24" y="1034" font-size="13.5" font-weight="400" fill="#c3c2b7" text-anchor="start">No healing potion that would mostly overheal; route plans start fresh each run</text>
<path d="M590,1019 H779.5 A3,3 0 0 1 782.5,1022 V1022 A3,3 0 0 1 779.5,1025 H590 Z" fill="#d95926" fill-opacity="0.5"/>
<circle cx="782.5" cy="1022" r="4.5" fill="#d95926" stroke="#1a1a19" stroke-width="2"/>
<text x="794.5" y="1027" font-size="13" font-weight="600"><tspan fill="#ffffff">33</tspan></text>
<text x="24" y="1066" font-size="15"><tspan font-weight="600" fill="#ffffff">Strategist v3.8</tspan><tspan fill="#898781" font-size="13"> · 2 runs</tspan></text>
<text x="24" y="1086" font-size="13.5" font-weight="400" fill="#c3c2b7" text-anchor="start">Incoming-damage forecasts account for Weak and Vulnerable; costly forced plays yield</text>
<path d="M590,1071 H867 A3,3 0 0 1 870,1074 V1074 A3,3 0 0 1 867,1077 H590 Z" fill="#d95926" fill-opacity="0.5"/>
<circle cx="782.5" cy="1074" r="4.5" fill="#d95926" stroke="#1a1a19" stroke-width="2"/>
<circle cx="870" cy="1074" r="6.5" fill="#0ca30c" stroke="#1a1a19" stroke-width="2"/>
<text x="882" y="1079" font-size="13" font-weight="600"><tspan fill="#ffffff">48</tspan><tspan fill="#0ca30c"> ✓ won</tspan></text>
<text x="24" y="1118" font-size="15"><tspan font-weight="600" fill="#ffffff">Strategist v3.9</tspan><tspan fill="#898781" font-size="13"> · 1 run</tspan></text>
<text x="24" y="1138" font-size="13.5" font-weight="400" fill="#c3c2b7" text-anchor="start">Frantic Escape forecast; a forced escape yields when it dies and a block line survives</text>
<path d="M590,1123 H832 A3,3 0 0 1 835,1126 V1126 A3,3 0 0 1 832,1129 H590 Z" fill="#d95926" fill-opacity="0.5"/>
<circle cx="835" cy="1126" r="4.5" fill="#d95926" stroke="#1a1a19" stroke-width="2"/>
<text x="847" y="1131" font-size="13" font-weight="600"><tspan fill="#ffffff">42</tspan></text>
<text x="24" y="1170" font-size="15"><tspan font-weight="600" fill="#ffffff">Strategist v3.10</tspan><tspan fill="#898781" font-size="13"> · 1 run</tspan></text>
<text x="24" y="1190" font-size="13.5" font-weight="400" fill="#c3c2b7" text-anchor="start">Hallway potions only when the turn would drop HP under the floor; Paper Cuts forecast</text>
<path d="M590,1175 H686.1666666666666 A3,3 0 0 1 689.1666666666666,1178 V1178 A3,3 0 0 1 686.1666666666666,1181 H590 Z" fill="#d95926" fill-opacity="0.5"/>
<circle cx="689.1666666666666" cy="1178" r="4.5" fill="#d95926" stroke="#1a1a19" stroke-width="2"/>
<text x="701.1666666666666" y="1183" font-size="13" font-weight="600"><tspan fill="#ffffff">17</tspan></text>
<text x="24" y="1222" font-size="15"><tspan font-weight="600" fill="#ffffff">Strategist v3.11</tspan><tspan fill="#898781" font-size="13"> · 1 run</tspan></text>
<text x="24" y="1242" font-size="13.5" font-weight="400" fill="#c3c2b7" text-anchor="start">Potions with effects the forecast can't show stay usable; briefs name a small draw pile</text>
<path d="M590,1227 H686.1666666666666 A3,3 0 0 1 689.1666666666666,1230 V1230 A3,3 0 0 1 686.1666666666666,1233 H590 Z" fill="#d95926" fill-opacity="0.5"/>
<circle cx="689.1666666666666" cy="1230" r="3.5" fill="#1a1a19" stroke="#d95926" stroke-width="2"/>
<text x="701.1666666666666" y="1235" font-size="13" font-weight="600"><tspan fill="#ffffff">17</tspan></text>
<text x="24" y="1274" font-size="15"><tspan font-weight="600" fill="#ffffff">Strategist v3.12</tspan><tspan fill="#898781" font-size="13"> · 1 run</tspan></text>
<text x="24" y="1294" font-size="13.5" font-weight="400" fill="#c3c2b7" text-anchor="start">Fixes for multi-page events and transform screens; no play that starves a held Beckon</text>
<path d="M590,1279 H732.8333333333334 A3,3 0 0 1 735.8333333333334,1282 V1282 A3,3 0 0 1 732.8333333333334,1285 H590 Z" fill="#d95926" fill-opacity="0.5"/>
<circle cx="735.8333333333334" cy="1282" r="4.5" fill="#d95926" stroke="#1a1a19" stroke-width="2"/>
<text x="747.8333333333334" y="1287" font-size="13" font-weight="600"><tspan fill="#ffffff">25</tspan></text>
<text x="24" y="1326" font-size="15"><tspan font-weight="600" fill="#ffffff">Strategist v3.13</tspan><tspan fill="#898781" font-size="13"> · 2 runs</tspan></text>
<text x="24" y="1346" font-size="13.5" font-weight="400" fill="#c3c2b7" text-anchor="start">Orichalcum forecast; route facts give the fewest elites before the first rest</text>
<path d="M590,1331 H867 A3,3 0 0 1 870,1334 V1334 A3,3 0 0 1 867,1337 H590 Z" fill="#d95926" fill-opacity="0.5"/>
<circle cx="689.1666666666666" cy="1334" r="4.5" fill="#d95926" stroke="#1a1a19" stroke-width="2"/>
<circle cx="870" cy="1334" r="6.5" fill="#0ca30c" stroke="#1a1a19" stroke-width="2"/>
<text x="882" y="1339" font-size="13" font-weight="600"><tspan fill="#ffffff">48</tspan><tspan fill="#0ca30c"> ✓ won</tspan></text>
<text x="24" y="1378" font-size="15"><tspan font-weight="600" fill="#ffffff">Strategist v3.14</tspan><tspan fill="#898781" font-size="13"> · 1 run</tspan></text>
<text x="24" y="1398" font-size="13.5" font-weight="400" fill="#c3c2b7" text-anchor="start">Asks again before a low-HP route commits to an avoidable elite; guidance on Act 1</text>
<text x="24" y="1416" font-size="13.5" font-weight="400" fill="#c3c2b7" text-anchor="start">rewards, elites and resting</text>
<path d="M590,1392 H686.1666666666666 A3,3 0 0 1 689.1666666666666,1395 V1395 A3,3 0 0 1 686.1666666666666,1398 H590 Z" fill="#d95926" fill-opacity="0.5"/>
<circle cx="689.1666666666666" cy="1395" r="4.5" fill="#d95926" stroke="#1a1a19" stroke-width="2"/>
<text x="701.1666666666666" y="1400" font-size="13" font-weight="600"><tspan fill="#ffffff">17</tspan></text>
<text x="24" y="1448" font-size="15"><tspan font-weight="600" fill="#ffffff">Strategist v3.15</tspan><tspan fill="#898781" font-size="13"> · 2 runs</tspan></text>
<text x="24" y="1468" font-size="13.5" font-weight="400" fill="#c3c2b7" text-anchor="start">Block cards with scaling or energy-refund text count as pure block on a turn with</text>
<text x="24" y="1486" font-size="13.5" font-weight="400" fill="#c3c2b7" text-anchor="start">nothing incoming</text>
<path d="M590,1462 H744.5 A3,3 0 0 1 747.5,1465 V1465 A3,3 0 0 1 744.5,1468 H590 Z" fill="#d95926" fill-opacity="0.5"/>
<circle cx="747.5" cy="1465" r="3.5" fill="#1a1a19" stroke="#d95926" stroke-width="2"/>
<circle cx="689.1666666666666" cy="1465" r="4.5" fill="#d95926" stroke="#1a1a19" stroke-width="2"/>
<text x="759.5" y="1470" font-size="13" font-weight="600"><tspan fill="#ffffff">27</tspan></text>
<text x="24" y="1518" font-size="15"><tspan font-weight="600" fill="#ffffff">Strategist v3.16</tspan><tspan fill="#898781" font-size="13"> · 1 run</tspan></text>
<text x="24" y="1538" font-size="13.5" font-weight="400" fill="#c3c2b7" text-anchor="start">In the last 6 floors before the Act 1 boss, an optional elite only near full HP</text>
<path d="M590,1523 H762 A3,3 0 0 1 765,1526 V1526 A3,3 0 0 1 762,1529 H590 Z" fill="#d95926" fill-opacity="0.5"/>
<circle cx="765" cy="1526" r="4.5" fill="#d95926" stroke="#1a1a19" stroke-width="2"/>
<text x="777" y="1531" font-size="13" font-weight="600"><tspan fill="#ffffff">30</tspan></text>
<text x="24" y="1570" font-size="15"><tspan font-weight="600" fill="#ffffff">Strategist v3.17</tspan><tspan fill="#898781" font-size="13"> · 2 runs</tspan></text>
<text x="24" y="1590" font-size="13.5" font-weight="400" fill="#c3c2b7" text-anchor="start">Plans state the run summary and an exit for no-kill fights; potion swaps on a full belt;</text>
<text x="24" y="1608" font-size="13.5" font-weight="400" fill="#c3c2b7" text-anchor="start">log-review fixes</text>
<path d="M590,1584 H779.5 A3,3 0 0 1 782.5,1587 V1587 A3,3 0 0 1 779.5,1590 H590 Z" fill="#d95926" fill-opacity="0.5"/>
<circle cx="782.5" cy="1587" r="4.5" fill="#d95926" stroke="#1a1a19" stroke-width="2"/>
<circle cx="654.1666666666666" cy="1587" r="4.5" fill="#d95926" stroke="#1a1a19" stroke-width="2"/>
<text x="794.5" y="1592" font-size="13" font-weight="600"><tspan fill="#ffffff">33</tspan></text>
<text x="24" y="1640" font-size="15"><tspan font-weight="600" fill="#ffffff">Strategist v3.18</tspan><tspan fill="#898781" font-size="13"> · 4 runs</tspan></text>
<text x="24" y="1660" font-size="13.5" font-weight="400" fill="#c3c2b7" text-anchor="start">Mid-fight plans stay in their fight; routes flag two elites without a rest; the v3.3</text>
<text x="24" y="1678" font-size="13.5" font-weight="400" fill="#c3c2b7" text-anchor="start">forecast; input fixes</text>
<path d="M590,1654 H867 A3,3 0 0 1 870,1657 V1657 A3,3 0 0 1 867,1660 H590 Z" fill="#d95926" fill-opacity="0.5"/>
<circle cx="870" cy="1657" r="4.5" fill="#d95926" stroke="#1a1a19" stroke-width="2"/>
<circle cx="730" cy="1657" r="4.5" fill="#d95926" stroke="#1a1a19" stroke-width="2"/>
<circle cx="724.1666666666666" cy="1657" r="4.5" fill="#d95926" stroke="#1a1a19" stroke-width="2"/>
<circle cx="689.1666666666666" cy="1657" r="4.5" fill="#d95926" stroke="#1a1a19" stroke-width="2"/>
<text x="882" y="1662" font-size="13" font-weight="600"><tspan fill="#ffffff">48</tspan></text>
<text x="24" y="1724" font-size="12.5" font-weight="400" fill="#898781" text-anchor="start">Beating the final boss on floor 48 wins the run. Early strategist versions reused seed JEV1 (v3.1 to v3.3 replayed v3's non-combat choices on it);</text>
<text x="24" y="1742" font-size="12.5" font-weight="400" fill="#898781" text-anchor="start">from v3.5 on, every run uses a new seed.</text>
<text x="24" y="1760" font-size="12.5" font-weight="400" fill="#898781" text-anchor="start">The imported Jev the Spire policy reached the Act 3 boss once, in a Hextech Mayhem run. That modifier changes the game, so the run is not plotted.</text>
<text x="24" y="1778" font-size="12.5" font-weight="400" fill="#898781" text-anchor="start">Runs still in progress are not plotted.</text>
<text x="24" y="1796" font-size="12.5" font-weight="400" fill="#898781" text-anchor="start">JEV20 (Strategist v3.16) was abandoned at Act 1 floor 3 when the code changed, and is left out.</text>
</svg>
